<svg id="visual" viewBox="0 0 900 600" width="900" height="600" xmlns="http://www.w3.org/2000/svg" xmlns:xlink="http://www.w3.org/1999/xlink" version="1.1"><rect x="0" y="0" width="900" height="600" fill="#002a49"></rect><defs><linearGradient id="grad1_0" x1="33.3%" y1="0%" x2="100%" y2="100%"><stop offset="20%" stop-color="#002a49" stop-opacity="1"></stop><stop offset="80%" stop-color="#002a49" stop-opacity="1"></stop></linearGradient></defs><defs><linearGradient id="grad2_0" x1="0%" y1="0%" x2="66.7%" y2="100%"><stop offset="20%" stop-color="#002a49" stop-opacity="1"></stop><stop offset="80%" stop-color="#002a49" stop-opacity="1"></stop></linearGradient></defs><g transform="translate(900, 0)"><path d="M0 459.7C-87.2 451.6 -174.4 443.5 -229.9 398.1C-285.3 352.7 -309.1 270.1 -342.1 197.5C-375.1 124.9 -417.4 62.5 -459.7 0L0 0Z" fill="#FBAE3C"></path></g><g transform="translate(0, 600)"><path d="M0 -459.7C53.4 -401.7 106.8 -343.7 180.5 -312.6C254.2 -281.6 348.2 -277.5 398.1 -229.9C448 -182.2 453.9 -91.1 459.7 0L0 0Z" fill="#FBAE3C"></path></g></svg>